<svg xmlns="http://www.w3.org/2000/svg" viewBox="0 0 280 120" role="img" aria-label="Villa Hermosa">
  <!-- Bamboo icon  corporate green #84BE3F -->
  <g fill="#84BE3F">
    <path d="M38 18c-1.2 8-1.5 22-1.2 36 .2 10 .8 22 1.5 34 .3 5.5-2.5 8-5.5 7.2-2.8-.8-4.2-4-4.5-9.2-.8-14-1.5-28-1.2-42 .2-10 1.2-22 2.8-32 1-6 4.5-7.5 7-4.5 1.5 1.8 1.5 5.5 1.1 10.5z"/>
    <path d="M48 22c-.8 9-1 24-.6 38 .3 11 1 24 1.8 36 .4 5.2-2.2 7.5-5 6.6-2.5-.8-3.8-3.8-4.2-8.8-.9-14-1.6-28-1.3-42 .2-10 1-22 2.5-32 .9-5.5 4-7 6.2-4.2 1.4 1.7 1.4 5.2 1 10.4z"/>
    <path d="M58 28c-.6 8-.8 20-.4 32 .2 9 .8 20 1.4 30 .3 4.5-1.8 6.5-4.2 5.7-2.2-.7-3.2-3.2-3.5-7.5-.7-12-1.3-24-1-36 .2-8 .8-18 2-26 .7-4.5 3.2-5.8 5.1-3.5 1.2 1.5 1.2 4.5.8 9.3z"/>
    <!-- Leaves -->
    <path d="M28 42c-10-2-18 4-20 12 8-2 16 0 22-6 2-2 2-5-2-6z"/>
    <path d="M24 58c-12 1-18 10-17 18 9-4 17-4 22-12 1.5-2.5 0-5.5-5-6z"/>
    <path d="M32 74c-10 3-14 12-11 19 8-5 15-7 19-14 1-2.5-1-5.5-8-5z"/>
  </g>
  <!-- Wordmark  corporate blue #174696 · Montserrat-like -->
  <text x="78" y="62" font-family="Montserrat, Arial, sans-serif" font-weight="800" font-size="42" fill="#174696" letter-spacing="-0.5">villa</text>
  <text x="78" y="92" font-family="Montserrat, Arial, sans-serif" font-weight="600" font-size="22" fill="#174696" letter-spacing="3.5">HERMOSA</text>
</svg>
