<svg xmlns="http://www.w3.org/2000/svg" fill="none" viewBox="0 0 24 24" stroke="#84be3f" stroke-width="1.5">
  <circle cx="12" cy="9" r="5.5"/>
  <path stroke-linecap="round" stroke-linejoin="round" d="M6.5 9h11M12 3.5c1.8 1.5 2.8 3.4 2.8 5.5S13.8 13.5 12 15M12 3.5C10.2 5 9.2 6.9 9.2 9s1 4 2.8 6"/>
  <path stroke-linecap="round" stroke-linejoin="round" d="M4 18.5c1.5-1.2 3.3-1.8 5.2-1.8h5.6c1.9 0 3.7.6 5.2 1.8"/>
  <path stroke-linecap="round" stroke-linejoin="round" d="M7 16.5v2.2c0 .7.4 1.3 1 1.5M17 16.5v2.2c0 .7-.4 1.3-1 1.5"/>
</svg>
