<svg xmlns="http://www.w3.org/2000/svg" fill="none" viewBox="0 0 24 24" stroke="#84be3f" stroke-width="1.5">
  <path stroke-linecap="round" stroke-linejoin="round" d="M6 20v-4M6 16c-2 0-3.5-1.8-3-3.5C3.5 10.5 5 10 6 11c1-1 2.5-.5 3 1.5.5 1.7-1 3.5-3 3.5z"/>
  <path stroke-linecap="round" stroke-linejoin="round" d="M11 20v-3M11 17c-1.5 0-2.6-1.3-2.2-2.6.3-1.2 1.4-1.6 2.2-.8.8-.8 1.9-.4 2.2.8.4 1.3-.7 2.6-2.2 2.6z"/>
  <path stroke-linecap="round" stroke-linejoin="round" d="M15 12h5v3h-5zM15 12l2.5-3L20 12M17.5 15v5M15.5 20h4"/>
</svg>
