<svg xmlns="http://www.w3.org/2000/svg" fill="none" viewBox="0 0 24 24" stroke="#84be3f" stroke-width="1.5">
  <path stroke-linecap="round" stroke-linejoin="round" d="M8 9c0-2.2 1.8-4 4-4s4 1.8 4 4v1H8V9z"/>
  <path stroke-linecap="round" stroke-linejoin="round" d="M7 10h10a1 1 0 011 1v2c0 3.3-2.7 6-6 6s-6-2.7-6-6v-2a1 1 0 011-1z"/>
  <path stroke-linecap="round" stroke-linejoin="round" d="M9 4c.3-.8.8-1.5 1.5-2M15 4c-.3-.8-.8-1.5-1.5-2M12 3.5V2"/>
  <path stroke-linecap="round" stroke-linejoin="round" d="M10 20h4"/>
</svg>
