<svg xmlns="http://www.w3.org/2000/svg" fill="none" viewBox="0 0 24 24" stroke="#84be3f" stroke-width="1.5" stroke-linecap="round" stroke-linejoin="round">
  <!-- Left cuff -->
  <path d="M2 9.5h3.25v5H2z"/>
  <!-- Right cuff -->
  <path d="M18.75 9.5H22v5h-3.25z"/>
  <!-- Left arm into clasp -->
  <path d="M5.25 11c1.8 0 3.2.4 4.5 1.4 1 .8 1.7 1.7 2.25 2.5"/>
  <!-- Right arm into clasp -->
  <path d="M18.75 11c-1.8 0-3.2.4-4.5 1.4-1 .8-1.7 1.7-2.25 2.5"/>
  <!-- Top of clasped hands -->
  <path d="M7.25 10c1.5-1.6 3.1-2.35 4.75-2.35S14.25 8.4 15.75 10"/>
  <!-- Bottom of clasped hands -->
  <path d="M8.5 15.75c1 .85 2.1 1.3 3.5 1.3s2.5-.45 3.5-1.3"/>
  <!-- Finger lines -->
  <path d="M9.75 12.75h4.5M10.25 11.35h3.5"/>
</svg>
