<svg xmlns="http://www.w3.org/2000/svg" fill="none" viewBox="0 0 24 24" stroke="#84be3f" stroke-width="1.5">
  <path stroke-linecap="round" stroke-linejoin="round" d="M7 4v8M7 6h3M7 9h3"/>
  <path stroke-linecap="round" stroke-linejoin="round" d="M4 15c1.5-1 3-1 4.5 0s3 1 4.5 0 3-1 4.5 0 3 1 4.5 0"/>
  <path stroke-linecap="round" stroke-linejoin="round" d="M4 18c1.5-1 3-1 4.5 0s3 1 4.5 0 3-1 4.5 0 3 1 4.5 0"/>
  <path stroke-linecap="round" stroke-linejoin="round" d="M4 21c1.5-1 3-1 4.5 0s3 1 4.5 0 3-1 4.5 0 3 1 4.5 0"/>
</svg>
